<svg viewBox="0 0 65 60" fill="none" xmlns="http://www.w3.org/2000/svg">
  <path d="M12.0233 49.9211L36.3917 7.3999C37.9717 4.69273 40.2552 2.21894 41.7544 1.81053V1.49547H28.192C24.2479 1.49547 22.1259 2.84905 19.5195 7.3999L5.09216 32.6863C2.48578 37.2371 2.01294 39.4659 3.43146 43.1415L9.02479 57.3425H9.33617C9.02479 55.6622 10.4433 52.64 12.0117 49.9211H12.0233Z" fill="#9273DA"/>
  <path d="M53.6666 49.9215C55.2466 52.6287 56.6651 55.6626 56.3422 57.3429H56.6536L62.3277 43.1419C63.8269 39.4662 63.0427 36.7591 60.667 32.6867L58.222 28.4625C55.6157 23.9117 53.4937 22.5581 49.5495 22.5581H35.9064V22.8732C37.4056 23.2699 39.6891 25.7437 41.2691 28.4625L53.6436 49.9215H53.6666Z" fill="#9273DA"/>
  <path d="M56.9318 6.12801C56.5973 5.83629 56.3205 5.83629 55.9745 6.12801L51.0847 10.3288C50.5196 10.8072 50.2082 11.1689 49.943 11.6707H49.8738V7.08485C49.8738 6.44307 50.139 5.84795 50.6349 5.42788L54.3946 2.20728C55.8823 0.923707 57.0356 0.912038 58.5463 2.20728L62.306 5.42788C62.7903 5.84795 63.0671 6.4314 63.0671 7.08485V11.6707H62.9979C62.7327 11.1689 62.4213 10.8072 61.8562 10.3288L56.9664 6.13968L56.9318 6.12801Z" fill="#9273DA"/>
</svg>
